HIERARCHY
ROOT hip
{
	OFFSET 0.000000 0.000000 0.000000 
	CHANNELS 6 Xposition Yposition Zposition Xrotation Zrotation Yrotation
	JOINT abdomen
	{
		OFFSET 0.000000 3.402643 0.000000 
		CHANNELS 3 Xrotation Zrotation Yrotation
		JOINT chest
		{
			OFFSET 0.000000 8.438565 -0.680529 
			CHANNELS 3 Xrotation Zrotation Yrotation
			JOINT neck
			{
				OFFSET 0.000000 10.207942 -0.272212 
				CHANNELS 3 Xrotation Zrotation Yrotation
				JOINT head
				{
					OFFSET 0.000000 3.130431 0.000000 
					CHANNELS 3 Xrotation Zrotation Yrotation
					End Site
					{
						OFFSET 0.000000 3.130435 0.000000 
					}
				}
			}
			JOINT lCollar
			{
				OFFSET 3.470700 6.669187 -0.816635 
				CHANNELS 3 Yrotation Zrotation Xrotation
				JOINT lShldr
				{
					OFFSET 3.198488 0.000000 0.000000 
					CHANNELS 3 Zrotation Yrotation Xrotation
					JOINT lForeArm
					{
						OFFSET 10.139888 0.000000 0.000000 
						CHANNELS 3 Yrotation Zrotation Xrotation
						JOINT lHand
						{
							OFFSET 8.370511 0.000000 0.000000 
							CHANNELS 3 Zrotation Yrotation Xrotation
							End Site
							{
								OFFSET 4.083176 0.000000 0.000000 
							}
						}
					}
				}
			}
			JOINT rCollar
			{
				OFFSET -3.470700 6.669187 -0.816635 
				CHANNELS 3 Yrotation Zrotation Xrotation
				JOINT rShldr
				{
					OFFSET -3.198488 0.000000 0.000000 
					CHANNELS 3 Zrotation Yrotation Xrotation
					JOINT rForeArm
					{
						OFFSET -10.139888 0.000000 0.000000 
						CHANNELS 3 Yrotation Zrotation Xrotation
						JOINT rHand
						{
							OFFSET -8.370511 0.000000 0.000000 
							CHANNELS 3 Zrotation Yrotation Xrotation
							End Site
							{
								OFFSET -4.083176 0.000000 0.000000 
							}
						}
					}
				}
			}
		}
	}
	JOINT lThigh
	{
		OFFSET 5.308129 -1.633274 1.361059 
		CHANNELS 3 Xrotation Zrotation Yrotation
		JOINT lShin
		{
			OFFSET -2.041588 -20.007561 0.000000 
			CHANNELS 3 Xrotation Zrotation Yrotation
			JOINT lFoot
			{
				OFFSET 0.000000 -19.190928 -1.224953 
				CHANNELS 3 Xrotation Yrotation Zrotation
				End Site
				{
					OFFSET 0.000000 -2.449906 4.627600 
				}
			}
		}
	}
	JOINT rThigh
	{
		OFFSET -5.308129 -1.633274 1.361059 
		CHANNELS 3 Xrotation Zrotation Yrotation
		JOINT rShin
		{
			OFFSET 2.041588 -20.007561 0.000000 
			CHANNELS 3 Xrotation Zrotation Yrotation
			JOINT rFoot
			{
				OFFSET 0.000000 -19.190928 -1.224953 
				CHANNELS 3 Xrotation Yrotation Zrotation
				End Site
				{
					OFFSET 0.000000 -2.449906 4.627600 
				}
			}
		}
	}
}
MOTION
Frames: 6
Frame Time: 0.033333
5.236297 42.112823 63.227123 -2.119128 4.570284 -155.741272 15.156251 5.185547 -4.159273 -9.130859 0.000000 -5.029297 -12.548829 -2.158203 -8.105469 22.119143 7.880859 -7.625613 0.478516 7.822255 0.272109 -91.503906 -33.593750 72.636719 -51.269531 -3.310547 -40.497478 16.074219 1.582031 0.312500 8.251954 4.824219 -0.342618 71.660149 20.996094 11.181641 72.470703 3.017578 -31.680206 -14.482422 -10.361329 2.177734 -1.767159 12.540471 4.655190 39.641247 -1.043742 -2.606039 -36.542625 14.219921 3.367612 -38.280933 -14.404329 -6.276347 51.237038 -0.013438 2.930285 -16.744576 3.432428 8.466143 
5.042270 42.094776 62.897808 -0.878906 4.746094 -155.224609 14.453124 5.283204 -4.492187 -9.306641 0.000000 -5.380859 -11.494141 -1.806641 -8.135073 23.183592 8.222656 -7.744140 0.302734 7.470703 0.292969 -90.507813 -33.320313 72.226563 -52.333984 -3.330078 -42.373047 15.703124 0.439453 0.000000 8.437500 5.000000 -0.401242 68.603516 20.957031 12.822266 72.490234 3.125000 -33.154293 -15.537107 -9.755859 2.273736 -0.898412 13.194307 4.521744 41.056786 -0.832482 -2.441133 -35.588562 13.628354 2.777930 -36.490097 -14.031459 -6.652390 51.418724 -0.195161 2.680961 -18.172733 3.020207 8.320297 
4.810091 42.028046 62.379440 0.869141 4.746094 -155.048828 13.740234 5.039062 -4.931641 -9.833984 0.351563 -5.742122 -8.867188 -1.269531 -8.008028 23.535154 8.398438 -7.900391 -0.048828 6.943359 0.341797 -88.906250 -32.880863 71.191406 -54.111328 -3.330078 -42.948650 14.648437 0.791016 0.058594 8.251954 4.658203 -0.313293 64.609375 21.503904 15.569986 72.480461 3.271484 -35.009766 -16.484373 -8.359375 2.010301 -0.391393 14.484379 4.258897 44.059109 -0.671377 -2.688819 -33.647125 13.389668 1.822688 -34.225655 -13.514429 -6.565465 51.932915 -0.195370 3.042464 -19.630497 2.496403 7.908493 
4.493375 41.872169 61.616653 3.505859 4.218750 -155.214844 13.007813 4.335938 -5.682855 -10.537109 0.703125 -6.103515 -4.667969 -0.185547 -7.744140 23.886719 8.212891 -8.056641 -0.380859 6.591797 0.205078 -85.947266 -32.314453 68.349609 -56.386715 -3.281250 -42.274834 12.021484 2.031250 0.215192 7.207031 3.242188 -0.244141 59.960941 23.632813 18.792980 73.330078 3.300781 -36.729080 -16.992189 -7.812500 1.982422 1.366219 15.858023 4.648399 47.404499 -0.513256 -2.618565 -30.756123 11.967770 0.156758 -30.924623 -12.996497 -7.212003 52.992794 -0.361220 2.826509 -21.006569 2.850400 7.971867 
4.070199 41.568291 60.679108 6.679688 3.339844 -155.731857 12.099609 3.808593 -6.396484 -10.888672 0.537109 -6.806641 0.166016 1.142578 -6.621094 24.052734 7.509766 -7.869817 -0.908203 7.109375 0.272229 -81.650391 -32.197266 63.881516 -59.208984 -3.251953 -41.864681 9.033203 2.246094 0.224994 5.439453 1.132813 -0.107422 54.169922 28.447268 20.639420 74.853516 3.232422 -37.012268 -16.367186 -8.847656 2.215295 4.684323 17.093107 5.566774 50.543839 -0.350157 -3.061964 -27.729078 10.993898 -1.323744 -27.563404 -12.819607 -6.873952 54.926327 -0.177563 2.981364 -22.640844 3.328921 8.748131 
3.577623 41.033203 59.665367 9.833984 2.109375 -157.148438 11.201171 3.496094 -7.216797 -11.240234 -0.341797 -7.519591 4.941407 2.031250 -4.589497 24.218752 6.455078 -7.157106 -1.777344 8.164063 0.242754 -75.371094 -32.324219 56.708988 -61.630859 -3.222656 -40.244141 7.070313 0.527344 -0.019440 3.681641 -2.031250 -0.048828 45.644531 35.498047 19.859188 77.011719 3.251953 -35.547428 -15.820313 -9.082031 2.060546 8.865197 17.644171 6.723729 53.019043 -0.340944 -3.006490 -25.884636 9.735481 -2.376837 -25.012257 -12.934896 -6.089019 58.770931 -0.536826 3.168304 -23.098658 4.361694 9.034268 
